<?xml version="1.0" standalone="no"?><!DOCTYPE svg PUBLIC "-//W3C//DTD SVG 1.1//EN" "http://www.w3.org/Graphics/SVG/1.1/DTD/svg11.dtd"><svg t="1767786281942" class="icon" viewBox="0 0 1024 1024" version="1.1" xmlns="http://www.w3.org/2000/svg" p-id="7267" xmlns:xlink="http://www.w3.org/1999/xlink" width="128" height="128"><path d="M0 0h1024v1024H0z" fill="#E88801" p-id="7268"></path><path d="M84.395604 84.395604h855.208792v855.208792H84.395604z" fill="#D47322" p-id="7269"></path><path d="M754.958066 616.087912l91.715516 79.877626-49.540219 175.796044h-52.775385L759.56044 748.065758l-56.32-63.397978zM569.901011 616.087912l-91.721143 79.877626 49.54022 175.796044h52.775385l-15.196836-123.695824 56.32-63.397978zM607.648352 342.28044l15.495033 204.406153h81.216703L714.549451 326.32967zM351.800264 343.208791L388.21978 393.846154l10.943297 97.471297L607.648352 342.274813 545.758242 244.747253z" fill="#FFFFFF" p-id="7270"></path><path d="M267.252747 464.175824m-149.098901 0a149.098901 149.098901 0 1 0 298.197802 0 149.098901 149.098901 0 1 0-298.197802 0Z" fill="#E88801" p-id="7271"></path><path d="M267.252747 464.175824m-120.967033 0a120.967033 120.967033 0 1 0 241.934066 0 120.967033 120.967033 0 1 0-241.934066 0Z" fill="#FFFFFF" p-id="7272"></path><path d="M267.252747 464.175824m-70.32967 0a70.32967 70.32967 0 1 0 140.659341 0 70.32967 70.32967 0 1 0-140.659341 0Z" fill="#E88801" p-id="7273"></path><path d="M666.725275 616.087912m-92.835165 0a92.835165 92.835165 0 1 0 185.67033 0 92.835165 92.835165 0 1 0-185.67033 0Z" fill="#E88801" p-id="7274"></path><path d="M666.725275 616.087912m-59.076923 0a59.076923 59.076923 0 1 0 118.153846 0 59.076923 59.076923 0 1 0-118.153846 0Z" fill="#FFFFFF" p-id="7275"></path><path d="M666.725275 616.087912m-30.945055 0a30.945055 30.945055 0 1 0 61.89011 0 30.945055 30.945055 0 1 0-61.89011 0Z" fill="#E88801" p-id="7276"></path><path d="M825.968527 677.64044l20.705055 18.325098-49.540219 175.796044h-52.775385l2.88633-25.954461h31.338901l47.385318-168.166681zM499.475692 677.021538l-21.295824 18.944 49.54022 175.796044h52.775385l-3.083253-28.430066h-31.074462l-46.867692-166.309978zM666.725275 658.285714c29.763516 0 54.384527-21.999121 58.480527-50.631736 0.393846 2.756923 0.596396 5.57011 0.596396 8.43956 0 32.621714-26.449582 59.076923-59.076923 59.076924S607.648352 648.709626 607.648352 616.087912c0-2.869451 0.202549-5.682637 0.596395-8.445187 4.096 28.632615 28.717011 50.637363 58.480528 50.637363z" fill="#FFECD2" p-id="7277"></path><path d="M663.912088 241.934066m-123.78022 0a123.78022 123.78022 0 1 0 247.56044 0 123.78022 123.78022 0 1 0-247.56044 0Z" fill="#E88801" p-id="7278"></path><path d="M663.912088 241.934066m-84.395604 0a84.395604 84.395604 0 1 0 168.791208 0 84.395604 84.395604 0 1 0-168.791208 0Z" fill="#FFFFFF" p-id="7279"></path><path d="M666.725275 244.747253m-47.824176 0a47.824176 47.824176 0 1 0 95.648352 0 47.824176 47.824176 0 1 0-95.648352 0Z" fill="#E88801" p-id="7280"></path><path d="M747.565011 230.681319c0.489495 3.679648 0.742681 7.438066 0.742681 11.252747 0 46.614505-37.786725 84.395604-84.395604 84.395604-46.608879 0-84.395604-37.781099-84.395604-84.395604 0-3.809055 0.253187-7.567473 0.742681-11.247121 5.502593 41.291956 40.858725 73.142857 83.652923 73.142857 42.479121 0 77.632703-31.389538 83.523516-72.237011z" fill="#FFECD2" p-id="7281"></path><path d="M387.049495 450.10989c0.770813 5.513846 1.170286 11.151473 1.170285 16.879121 0 66.813187-54.159473 120.967033-120.967033 120.967033S146.285714 533.807824 146.285714 466.989011c0-5.727648 0.393846-11.365275 1.170286-16.879121C155.664879 508.933626 206.172835 554.197802 267.252747 554.197802c60.792967 0 111.120879-44.842198 119.678594-103.260835z" fill="#FFECD2" p-id="7282"></path></svg>